<svg id="Layer_1" data-name="Layer 1" xmlns="http://www.w3.org/2000/svg" viewBox="0 0 419.53 297.64"><defs><style>.cls-1{stroke:#231f20;}.cls-1,.cls-2,.cls-3,.cls-4{stroke-miterlimit:10;}.cls-1,.cls-2{stroke-width:0.5px;}.cls-2,.cls-3,.cls-4{fill:none;stroke:#fff;}.cls-3,.cls-4{stroke-width:0.2px;}.cls-4{stroke-linecap:round;}.cls-5{font-size:14.89px;}.cls-5,.cls-6,.cls-7{fill:#fff;}.cls-5,.cls-7{font-family:PTMono-Regular, PT Mono;}.cls-7{font-size:11.74px;}</style></defs><title>map</title><rect class="cls-1" x="60.95" y="-60.95" width="297.64" height="419.53" transform="translate(358.58 -60.95) rotate(90)"/><rect class="cls-2" x="32.74" y="117.64" width="355.19" height="52.05"/><rect class="cls-2" x="72.64" y="57.3" width="41.19" height="60.34"/><rect class="cls-2" x="307.79" y="57.3" width="41.19" height="60.34"/><rect class="cls-2" x="145.63" y="57.3" width="130.32" height="60.34"/><rect class="cls-2" x="132.73" y="139.79" width="24.97" height="29.9"/><rect class="cls-2" x="263.47" y="139.79" width="24.97" height="29.9"/><line class="cls-2" x1="288.44" y1="139.79" x2="288.44" y2="132.14"/><line class="cls-2" x1="132.73" y1="139.79" x2="132.73" y2="132.14"/><rect class="cls-2" x="32.74" y="132.14" width="99.99" height="37.55"/><rect class="cls-2" x="288.44" y="132.14" width="99.49" height="37.55"/><line class="cls-3" x1="173.31" y1="120.59" x2="190.29" y2="121.19"/><line class="cls-3" x1="190.29" y1="124.74" x2="173.31" y2="125.33"/><line class="cls-4" x1="173.31" y1="120.59" x2="173.31" y2="125.33"/><line class="cls-3" x1="174.85" y1="120.67" x2="174.85" y2="125.25"/><line class="cls-3" x1="176.4" y1="120.74" x2="176.4" y2="125.18"/><line class="cls-3" x1="177.94" y1="120.8" x2="177.94" y2="125.12"/><line class="cls-3" x1="179.48" y1="120.85" x2="179.48" y2="125.07"/><line class="cls-3" x1="181.03" y1="120.9" x2="181.03" y2="125.03"/><line class="cls-3" x1="182.57" y1="120.94" x2="182.57" y2="124.98"/><line class="cls-3" x1="184.11" y1="120.98" x2="184.11" y2="124.94"/><line class="cls-4" x1="190.29" y1="121.19" x2="190.29" y2="124.74"/><line class="cls-3" x1="188.74" y1="121.13" x2="188.74" y2="124.79"/><line class="cls-3" x1="187.2" y1="120.99" x2="187.2" y2="124.95"/><line class="cls-3" x1="185.66" y1="120.99" x2="185.66" y2="124.95"/><line class="cls-3" x1="247.15" y1="120.59" x2="230.18" y2="121.19"/><line class="cls-3" x1="230.18" y1="124.74" x2="247.15" y2="125.33"/><line class="cls-4" x1="247.15" y1="120.59" x2="247.15" y2="125.33"/><line class="cls-3" x1="245.61" y1="120.67" x2="245.61" y2="125.25"/><line class="cls-3" x1="244.07" y1="120.74" x2="244.07" y2="125.18"/><line class="cls-3" x1="242.52" y1="120.8" x2="242.52" y2="125.12"/><line class="cls-3" x1="240.98" y1="120.85" x2="240.98" y2="125.07"/><line class="cls-3" x1="239.44" y1="120.9" x2="239.44" y2="125.03"/><line class="cls-3" x1="237.89" y1="120.94" x2="237.89" y2="124.98"/><line class="cls-3" x1="236.35" y1="120.98" x2="236.35" y2="124.94"/><line class="cls-4" x1="230.18" y1="121.19" x2="230.18" y2="124.74"/><line class="cls-3" x1="231.72" y1="121.13" x2="231.72" y2="124.79"/><line class="cls-3" x1="233.26" y1="120.99" x2="233.26" y2="124.95"/><line class="cls-3" x1="234.81" y1="120.99" x2="234.81" y2="124.95"/><line class="cls-2" x1="172" y1="127.7" x2="248.37" y2="127.7"/><text class="cls-5" transform="translate(179.54 87.26)">library</text><text class="cls-5" transform="translate(188.47 150.21)">foyer</text><text class="cls-5" transform="translate(322.01 149.19)">east<tspan x="0" y="11.91">wing</tspan></text><text class="cls-5" transform="translate(38.06 149.19)">conference<tspan x="26.8" y="11.91">hall</tspan></text><path class="cls-6" d="M89.13,110.47l-.12.43a2.28,2.28,0,0,0,0,.45,1.75,1.75,0,0,0,.39,1.25,1.72,1.72,0,0,0,1.26.41,1.78,1.78,0,0,0,.67-.12,1.39,1.39,0,0,0,.51-.34,1.59,1.59,0,0,0,.31-.54,1.92,1.92,0,0,0,.11-.69,2.28,2.28,0,0,0-.13-.78,2.07,2.07,0,0,0-.37-.64l.5-.3a3,3,0,0,1,.21.3,4.1,4.1,0,0,1,.21.42,2.44,2.44,0,0,1,.16.52,3,3,0,0,1,.06.62,2.69,2.69,0,0,1-.16,1,1.83,1.83,0,0,1-1.16,1.14,3,3,0,0,1-.93.14,2.85,2.85,0,0,1-1-.15,1.84,1.84,0,0,1-.7-.43,1.88,1.88,0,0,1-.43-.69,2.5,2.5,0,0,1-.15-.9,4.15,4.15,0,0,1,.11-1,3.64,3.64,0,0,1,.25-.67H90v.61Z"/><path class="cls-6" d="M90.61,108.61a2.38,2.38,0,0,1-1.64-.54,2,2,0,0,1-.6-1.55,2.38,2.38,0,0,1,.17-.93A1.83,1.83,0,0,1,89,105a2,2,0,0,1,.71-.39,3.17,3.17,0,0,1,.88-.12,2.93,2.93,0,0,1,.93.14,1.83,1.83,0,0,1,.71.4,1.93,1.93,0,0,1,.45.66,2.23,2.23,0,0,1,.16.88,2.2,2.2,0,0,1-.18.93,1.73,1.73,0,0,1-.47.65,1.94,1.94,0,0,1-.71.38A3.19,3.19,0,0,1,90.61,108.61Zm0-.72a2.46,2.46,0,0,0,.6-.07,1.87,1.87,0,0,0,.54-.23,1.24,1.24,0,0,0,.39-.43,1.22,1.22,0,0,0,.14-.63,1.25,1.25,0,0,0-.42-1,1.94,1.94,0,0,0-1.25-.35,3.07,3.07,0,0,0-.6.07,1.65,1.65,0,0,0-.54.24,1.31,1.31,0,0,0-.38.43,1.26,1.26,0,0,0-.15.64,1.24,1.24,0,0,0,.42,1A1.94,1.94,0,0,0,90.61,107.89Z"/><path class="cls-6" d="M90,103.15h-.46l-.26,0-.22,0v.58h-.56v-1.15l.7-.08v0a1.22,1.22,0,0,1-.29-.23,1.46,1.46,0,0,1-.26-.33,1.33,1.33,0,0,1-.18-.42,1.53,1.53,0,0,1-.07-.49,2.84,2.84,0,0,1,.08-.69,1,1,0,0,1,.31-.51,1.31,1.31,0,0,1,.59-.3,3.54,3.54,0,0,1,1-.11h2.46v.68H90.43a2,2,0,0,0-1.07.23.91.91,0,0,0-.36.84,1.07,1.07,0,0,0,.09.43,1.52,1.52,0,0,0,.24.38,1.9,1.9,0,0,0,.33.3,1.35,1.35,0,0,0,.41.18h2.69v.66Z"/><path class="cls-6" d="M92.76,98.06h-.58V97H89.05v1h-.58V97h-.24a1.44,1.44,0,0,1-1.16-.42,1.79,1.79,0,0,1-.36-1.2,3.89,3.89,0,0,1,0-.51,2,2,0,0,1,.14-.48l.55.15a1.86,1.86,0,0,0-.12.43,2.64,2.64,0,0,0,0,.38.87.87,0,0,0,.28.76,1.52,1.52,0,0,0,.91.21V94.58h.58v1.78h3.13V94.58h.58Z"/><path class="cls-6" d="M92.22,89.13a2.65,2.65,0,0,1,.25.37,2.78,2.78,0,0,1,.21.46,2.83,2.83,0,0,1,.13.52,3.29,3.29,0,0,1,0,.54,2.35,2.35,0,0,1-.16.91,1.93,1.93,0,0,1-.45.66,2.15,2.15,0,0,1-.71.4,3,3,0,0,1-.93.14,2.85,2.85,0,0,1-1-.15,2,2,0,0,1-.7-.43,1.88,1.88,0,0,1-.43-.69,2.57,2.57,0,0,1-.15-.9,2.82,2.82,0,0,1,.09-.71,1.39,1.39,0,0,1,.36-.62,1.68,1.68,0,0,1,.72-.42,3.22,3.22,0,0,1,1.18-.1v3.31A1.5,1.5,0,0,0,91.88,92a1.56,1.56,0,0,0,.38-1.1,1.76,1.76,0,0,0-.06-.46,2.7,2.7,0,0,0-.13-.43,2.56,2.56,0,0,0-.17-.37,1.91,1.91,0,0,0-.17-.24Zm-3.29,1.81a2.26,2.26,0,0,0,.06.53,1.17,1.17,0,0,0,.21.45,1,1,0,0,0,.36.31,1.36,1.36,0,0,0,.57.16V89.73a1.3,1.3,0,0,0-.88.37A1.14,1.14,0,0,0,88.93,90.94Z"/><path class="cls-6" d="M92.76,88h-.58V86.8H89.05V88h-.58v-1.6l.56-.14v0a3.32,3.32,0,0,1-.46-.65,1.91,1.91,0,0,1-.18-.86.82.82,0,0,1,.11-.47.66.66,0,0,1,.32-.27,1.59,1.59,0,0,1,.52-.13,4.75,4.75,0,0,1,.69,0v.6a2.24,2.24,0,0,0-.8.11.38.38,0,0,0-.25.39,1.51,1.51,0,0,0,.07.48,1.84,1.84,0,0,0,.19.37,1.6,1.6,0,0,0,.22.27,1.79,1.79,0,0,0,.19.16h2.52V84.5h.58Z"/><path class="cls-6" d="M92.22,78.85a2.07,2.07,0,0,1,.25.36,3.22,3.22,0,0,1,.21.46,3,3,0,0,1,.13.52,3.31,3.31,0,0,1,0,.55,2.29,2.29,0,0,1-.16.9,1.76,1.76,0,0,1-.45.66,2,2,0,0,1-.71.41,3,3,0,0,1-.93.13,2.85,2.85,0,0,1-1-.15,1.84,1.84,0,0,1-.7-.43,1.88,1.88,0,0,1-.43-.69,2.48,2.48,0,0,1-.15-.89,2.9,2.9,0,0,1,.09-.72,1.45,1.45,0,0,1,.36-.62,1.57,1.57,0,0,1,.72-.41,3.42,3.42,0,0,1,1.18-.11v3.31a1.53,1.53,0,0,0,1.16-.41,1.61,1.61,0,0,0,.38-1.11,1.82,1.82,0,0,0-.06-.46,3.06,3.06,0,0,0-.13-.43,2,2,0,0,0-.17-.36,1.52,1.52,0,0,0-.17-.25Zm-3.29,1.8a2.35,2.35,0,0,0,.06.54,1.12,1.12,0,0,0,.21.44,1,1,0,0,0,.36.32,1.75,1.75,0,0,0,.57.16V79.45a1.34,1.34,0,0,0-.88.36A1.17,1.17,0,0,0,88.93,80.65Z"/><path class="cls-6" d="M90,77.44h-.46l-.26,0-.22,0v.58h-.56V76.94l.7-.08v0a1.22,1.22,0,0,1-.29-.23,1.46,1.46,0,0,1-.26-.33,1.33,1.33,0,0,1-.18-.42,1.57,1.57,0,0,1-.07-.49,3,3,0,0,1,.08-.7,1,1,0,0,1,.31-.5,1.32,1.32,0,0,1,.59-.31,4.06,4.06,0,0,1,1-.1h2.46v.68H90.43a2,2,0,0,0-1.07.23.91.91,0,0,0-.36.84,1.11,1.11,0,0,0,.09.43,1.52,1.52,0,0,0,.24.38,1.9,1.9,0,0,0,.33.3,1.65,1.65,0,0,0,.41.18h2.69v.66Z"/><path class="cls-6" d="M89.13,69.34q-.06.19-.12.42a2.28,2.28,0,0,0,0,.45,1.75,1.75,0,0,0,.39,1.25,1.68,1.68,0,0,0,1.26.41,1.78,1.78,0,0,0,.67-.12,1.39,1.39,0,0,0,.51-.34,1.65,1.65,0,0,0,.31-.53,1.94,1.94,0,0,0,.11-.7,2.32,2.32,0,0,0-.13-.78,2.2,2.2,0,0,0-.37-.64l.5-.3a3,3,0,0,1,.21.3,4.1,4.1,0,0,1,.21.42,2.64,2.64,0,0,1,.16.52,3,3,0,0,1,.06.62,2.69,2.69,0,0,1-.16,1,2,2,0,0,1-.45.71,2,2,0,0,1-.71.43,2.75,2.75,0,0,1-.93.15,2.84,2.84,0,0,1-1-.16A1.84,1.84,0,0,1,89,72a1.92,1.92,0,0,1-.43-.68,2.57,2.57,0,0,1-.15-.9,4.18,4.18,0,0,1,.11-1,3.64,3.64,0,0,1,.25-.67H90v.62Z"/><path class="cls-6" d="M92.22,63.42a2.65,2.65,0,0,1,.25.37,2.78,2.78,0,0,1,.21.46,2.93,2.93,0,0,1,.13.51,3.41,3.41,0,0,1,0,.55,2.38,2.38,0,0,1-.16.91,1.93,1.93,0,0,1-.45.66,2.15,2.15,0,0,1-.71.4,3,3,0,0,1-.93.14,2.85,2.85,0,0,1-1-.15,1.86,1.86,0,0,1-.7-.44,1.76,1.76,0,0,1-.43-.68,2.57,2.57,0,0,1-.15-.9,2.82,2.82,0,0,1,.09-.71,1.39,1.39,0,0,1,.36-.62,1.68,1.68,0,0,1,.72-.42,3.22,3.22,0,0,1,1.18-.1v3.31a1.5,1.5,0,0,0,1.16-.42,1.59,1.59,0,0,0,.38-1.11,1.74,1.74,0,0,0-.06-.45,2.7,2.7,0,0,0-.13-.43,2.56,2.56,0,0,0-.17-.37,1.91,1.91,0,0,0-.17-.24Zm-3.29,1.81a2.26,2.26,0,0,0,.06.53,1.17,1.17,0,0,0,.21.45,1.1,1.1,0,0,0,.36.31,1.53,1.53,0,0,0,.57.16V64a1.3,1.3,0,0,0-.88.37A1.14,1.14,0,0,0,88.93,65.23Z"/><path class="cls-6" d="M99.61,98.24H99V97.09H95.9v1.15h-.57v-1.6l.55-.14v0a3.41,3.41,0,0,1-.45-.65,1.79,1.79,0,0,1-.19-.86.87.87,0,0,1,.11-.46.83.83,0,0,1,.33-.28,1.72,1.72,0,0,1,.52-.13,6.77,6.77,0,0,1,.69,0v.6a2.2,2.2,0,0,0-.8.11.39.39,0,0,0-.26.39,1.42,1.42,0,0,0,.08.48,1.29,1.29,0,0,0,.19.37,1.23,1.23,0,0,0,.22.27,1.3,1.3,0,0,0,.19.17H99V94.78h.57Z"/><path class="cls-6" d="M97.47,93.18a2.37,2.37,0,0,1-1.64-.54,2,2,0,0,1-.61-1.54,2.2,2.2,0,0,1,.18-.93,1.83,1.83,0,0,1,1.19-1,3.12,3.12,0,0,1,.88-.13,3,3,0,0,1,.93.14,2.05,2.05,0,0,1,.71.4,1.93,1.93,0,0,1,.45.66,2.48,2.48,0,0,1,.16.89,2.19,2.19,0,0,1-.18.92,1.78,1.78,0,0,1-.48.65,1.88,1.88,0,0,1-.71.39A3.12,3.12,0,0,1,97.47,93.18Zm0-.71a3.07,3.07,0,0,0,.6-.07,1.65,1.65,0,0,0,.54-.24,1.31,1.31,0,0,0,.39-.42,1.41,1.41,0,0,0,.14-.64,1.26,1.26,0,0,0-.42-1,2,2,0,0,0-1.25-.34,2.35,2.35,0,0,0-.6.07,1.65,1.65,0,0,0-.54.24,1.31,1.31,0,0,0-.39.42,1.41,1.41,0,0,0-.14.64,1.25,1.25,0,0,0,.42,1A2,2,0,0,0,97.47,92.47Z"/><path class="cls-6" d="M97.47,88a2.37,2.37,0,0,1-1.64-.54A2,2,0,0,1,95.22,86,2.2,2.2,0,0,1,95.4,85a1.83,1.83,0,0,1,.48-.64,1.87,1.87,0,0,1,.71-.38,2.8,2.8,0,0,1,.88-.13,3,3,0,0,1,.93.14,1.9,1.9,0,0,1,.71.4,1.93,1.93,0,0,1,.45.66,2.42,2.42,0,0,1,.16.88,2.2,2.2,0,0,1-.18.93,1.83,1.83,0,0,1-1.19,1A2.8,2.8,0,0,1,97.47,88Zm0-.71a2.47,2.47,0,0,0,.6-.08,1.63,1.63,0,0,0,.54-.23A1.31,1.31,0,0,0,99,86.6a1.41,1.41,0,0,0,.14-.64,1.25,1.25,0,0,0-.42-1,2,2,0,0,0-1.25-.35,2.35,2.35,0,0,0-.6.08,1.36,1.36,0,0,0-.93.66,1.41,1.41,0,0,0-.14.64,1.23,1.23,0,0,0,.42,1A1.94,1.94,0,0,0,97.47,87.33Z"/><path class="cls-6" d="M99.61,81.14h-3.2a1.33,1.33,0,0,0-.3.06.46.46,0,0,0-.21.14.36.36,0,0,0-.08.23.63.63,0,0,0,.24.5,1.69,1.69,0,0,0,.6.3h3V83H95.33v-.44l.52-.13v0l-.24-.16a1.29,1.29,0,0,1-.21-.19.9.9,0,0,1-.13-.26,1.2,1.2,0,0,1,0-.36,1.26,1.26,0,0,1,0-.27,1,1,0,0,1,.12-.25.7.7,0,0,1,.22-.2.8.8,0,0,1,.34-.12,1.68,1.68,0,0,1-.53-.44,1.09,1.09,0,0,1-.19-.67,1,1,0,0,1,.1-.46.64.64,0,0,1,.27-.27,1.3,1.3,0,0,1,.42-.14,4.26,4.26,0,0,1,.54,0h3.06v.65H96.7l-.34,0a.77.77,0,0,0-.28.07.52.52,0,0,0-.19.12.38.38,0,0,0-.07.22.65.65,0,0,0,.24.51,1.58,1.58,0,0,0,.69.31h2.86Z"/><path class="cls-6" d="M159.66,30.33a6.39,6.39,0,0,0-1.34-.12,3.52,3.52,0,0,0-1.29.24,2.7,2.7,0,0,0-1.09.77,3.82,3.82,0,0,0-.75,1.42,7.22,7.22,0,0,0-.28,2.18,5.69,5.69,0,0,0,.87,3.49,3,3,0,0,0,2.53,1.12,3.54,3.54,0,0,0,1.75-.4V35.91h-2.32V34.84h3.45v4.92a3.17,3.17,0,0,1-.61.36,7.71,7.71,0,0,1-.77.27,7.52,7.52,0,0,1-.85.17,8.43,8.43,0,0,1-.86,0,5.09,5.09,0,0,1-1.92-.34,3.65,3.65,0,0,1-1.44-1.06,5.07,5.07,0,0,1-.91-1.8,9.5,9.5,0,0,1-.32-2.59,8,8,0,0,1,.4-2.65,5.08,5.08,0,0,1,1.06-1.8,3.93,3.93,0,0,1,1.5-1,5,5,0,0,1,1.75-.32,9.8,9.8,0,0,1,1.58.1,5.55,5.55,0,0,1,1.06.28l0,.07v2.67h-1.18Z"/><path class="cls-6" d="M163.32,40.42V39.35h2.16V33.49h-2.16V32.42h3l.26,1h.08a6.11,6.11,0,0,1,1.21-.85,3.51,3.51,0,0,1,1.61-.35,1.6,1.6,0,0,1,.87.21,1.34,1.34,0,0,1,.51.61,3.44,3.44,0,0,1,.25,1,12.43,12.43,0,0,1,.06,1.29l-1.12,0a4.14,4.14,0,0,0-.2-1.49.72.72,0,0,0-.73-.48,2.72,2.72,0,0,0-.89.14,3.39,3.39,0,0,0-1.2.77,3.72,3.72,0,0,0-.31.35v4.71h3.07v1.07Z"/><path class="cls-6" d="M172.78,36.42a4.42,4.42,0,0,1,1-3.06,3.66,3.66,0,0,1,2.88-1.13,4.19,4.19,0,0,1,1.74.33,3.32,3.32,0,0,1,1.21.89,3.51,3.51,0,0,1,.71,1.32,5.87,5.87,0,0,1,.23,1.65,5.58,5.58,0,0,1-.25,1.74,3.6,3.6,0,0,1-.76,1.32,3.33,3.33,0,0,1-1.22.84,4.51,4.51,0,0,1-1.66.29,4.33,4.33,0,0,1-1.72-.32,3.47,3.47,0,0,1-1.22-.89,3.63,3.63,0,0,1-.71-1.33A5.49,5.49,0,0,1,172.78,36.42Zm1.32,0a4.77,4.77,0,0,0,.14,1.12,3.16,3.16,0,0,0,.44,1,2.19,2.19,0,0,0,.79.72,2.41,2.41,0,0,0,1.19.27,2.32,2.32,0,0,0,1.92-.79,3.62,3.62,0,0,0,.64-2.33,4.78,4.78,0,0,0-.13-1.13,2.93,2.93,0,0,0-.45-1,2.31,2.31,0,0,0-.8-.72,2.39,2.39,0,0,0-1.18-.27,2.32,2.32,0,0,0-1.92.79A3.66,3.66,0,0,0,174.1,36.42Z"/><path class="cls-6" d="M187.26,32.42h2.28v5.46a12.06,12.06,0,0,0,.1,1.5h1.07v1h-2.14l0-1.36h-.06a3.46,3.46,0,0,1-1.1,1.12,3.06,3.06,0,0,1-1.66.43,4.24,4.24,0,0,1-1.26-.16,1.82,1.82,0,0,1-.85-.59,2.71,2.71,0,0,1-.49-1.11,7.69,7.69,0,0,1-.16-1.74V33.49h-1.08V32.42h2.34v4.34a10.24,10.24,0,0,0,.06,1.17,2.41,2.41,0,0,0,.23.88,1.18,1.18,0,0,0,.51.55,2,2,0,0,0,.91.18,2.1,2.1,0,0,0,1.44-.54,3.51,3.51,0,0,0,.93-1.36V33.49h-1Z"/><path class="cls-6" d="M192.55,35.22c0-.09,0-.22,0-.38s0-.31,0-.47,0-.33,0-.49a3.84,3.84,0,0,0-.06-.42h-1.07v-1h2.15l.14,1.3h.08a2.93,2.93,0,0,1,1-1,3.23,3.23,0,0,1,.78-.34,3.1,3.1,0,0,1,.92-.13,4.67,4.67,0,0,1,1.3.16,1.93,1.93,0,0,1,.94.57,2.66,2.66,0,0,1,.57,1.1,6.69,6.69,0,0,1,.19,1.77v4.59H198.2V36.08a3.74,3.74,0,0,0-.43-2,1.73,1.73,0,0,0-1.56-.67,2.06,2.06,0,0,0-.81.17,2.73,2.73,0,0,0-.71.44,3.08,3.08,0,0,0-.56.63,2.75,2.75,0,0,0-.35.76v5h-1.23Z"/><path class="cls-6" d="M206.23,29.22h2.61v8.46a2.43,2.43,0,0,0,0,.36c0,.15,0,.3,0,.46s0,.32,0,.47a3.46,3.46,0,0,0,.07.41h1.07v1h-2.15l-.16-1.23h-.06a2.86,2.86,0,0,1-1.05,1,3.09,3.09,0,0,1-1.6.4,3.31,3.31,0,0,1-2.66-1,4.85,4.85,0,0,1-.85-3.16,5.17,5.17,0,0,1,.29-1.79,3.36,3.36,0,0,1,.82-1.29,3.57,3.57,0,0,1,1.28-.8,4.93,4.93,0,0,1,1.68-.27l.6,0,.48,0a3,3,0,0,1,.43.09l.44.11V30.29h-1.35Zm-.95,10.32a2.22,2.22,0,0,0,1.53-.5,2.74,2.74,0,0,0,.77-1.52V33.81a2.68,2.68,0,0,0-.79-.35,5.17,5.17,0,0,0-1.16-.11,2.72,2.72,0,0,0-2,.74,3.24,3.24,0,0,0-.73,2.35,5.94,5.94,0,0,0,.12,1.22,2.63,2.63,0,0,0,.4,1,1.89,1.89,0,0,0,.74.66A2.42,2.42,0,0,0,205.28,39.54Z"/><path class="cls-6" d="M221.73,29.22h6.42v1.19h-5.09v3.82h4.77v1.18h-4.77v5h-1.33Z"/><path class="cls-6" d="M231.37,29.22H234v8.51a2.22,2.22,0,0,0,.33,1.38,1.15,1.15,0,0,0,1,.4,2.27,2.27,0,0,0,.86-.16,3.82,3.82,0,0,0,.9-.55l.58.88a3.84,3.84,0,0,1-.56.41,4.51,4.51,0,0,1-.63.29,3.83,3.83,0,0,1-.64.18,2.55,2.55,0,0,1-.59.07,3.43,3.43,0,0,1-1.06-.15,1.86,1.86,0,0,1-.78-.49,2.23,2.23,0,0,1-.48-.89,5.26,5.26,0,0,1-.16-1.37V30.29h-1.4Z"/><path class="cls-6" d="M240,36.42a4.43,4.43,0,0,1,1-3.06,3.63,3.63,0,0,1,2.88-1.13,4.22,4.22,0,0,1,1.74.33,3.4,3.4,0,0,1,1.21.89,3.65,3.65,0,0,1,.71,1.32,5.87,5.87,0,0,1,.23,1.65,5.58,5.58,0,0,1-.26,1.74,3.73,3.73,0,0,1-.75,1.32,3.41,3.41,0,0,1-1.22.84,4.55,4.55,0,0,1-1.66.29,4.38,4.38,0,0,1-1.73-.32,3.43,3.43,0,0,1-1.21-.89,3.63,3.63,0,0,1-.71-1.33A5.48,5.48,0,0,1,240,36.42Zm1.33,0a4.77,4.77,0,0,0,.14,1.12,3,3,0,0,0,.44,1,2.19,2.19,0,0,0,.79.72,2.39,2.39,0,0,0,1.18.27,2.36,2.36,0,0,0,1.93-.79,3.62,3.62,0,0,0,.64-2.33,4.78,4.78,0,0,0-.13-1.13,2.93,2.93,0,0,0-.45-1,2.31,2.31,0,0,0-.8-.72,2.41,2.41,0,0,0-1.19-.27,2.29,2.29,0,0,0-1.91.79A3.6,3.6,0,0,0,241.3,36.42Z"/><path class="cls-6" d="M249.57,36.42a4.43,4.43,0,0,1,1-3.06,3.63,3.63,0,0,1,2.88-1.13,4.22,4.22,0,0,1,1.74.33,3.4,3.4,0,0,1,1.21.89,3.65,3.65,0,0,1,.71,1.32,5.87,5.87,0,0,1,.23,1.65,5.58,5.58,0,0,1-.26,1.74,3.73,3.73,0,0,1-.75,1.32,3.41,3.41,0,0,1-1.22.84,4.55,4.55,0,0,1-1.66.29,4.38,4.38,0,0,1-1.73-.32,3.43,3.43,0,0,1-1.21-.89,3.63,3.63,0,0,1-.71-1.33A5.48,5.48,0,0,1,249.57,36.42Zm1.33,0a4.77,4.77,0,0,0,.14,1.12,3,3,0,0,0,.44,1,2.25,2.25,0,0,0,.78.72,2.46,2.46,0,0,0,1.19.27,2.36,2.36,0,0,0,1.93-.79,3.62,3.62,0,0,0,.64-2.33,4.78,4.78,0,0,0-.13-1.13,2.93,2.93,0,0,0-.45-1,2.31,2.31,0,0,0-.8-.72,2.41,2.41,0,0,0-1.19-.27,2.29,2.29,0,0,0-1.91.79A3.6,3.6,0,0,0,250.9,36.42Z"/><path class="cls-6" d="M259.32,40.42V39.35h2.16V33.49h-2.16V32.42h3l.26,1h.07a6.19,6.19,0,0,1,1.22-.85,3.47,3.47,0,0,1,1.6-.35,1.6,1.6,0,0,1,.87.21,1.34,1.34,0,0,1,.51.61,2.87,2.87,0,0,1,.25,1,10,10,0,0,1,.07,1.29l-1.12,0a4.14,4.14,0,0,0-.2-1.49.74.74,0,0,0-.73-.48,2.83,2.83,0,0,0-.9.14,3,3,0,0,0-.69.36,3.15,3.15,0,0,0-.51.41,2.46,2.46,0,0,0-.3.35v4.71h3.07v1.07Z"/><text class="cls-7" transform="translate(223.1 243.45)">sleeping<tspan x="14.09" y="9.39">area</tspan></text><text class="cls-7" transform="translate(311.65 257.83)">WC</text><text class="cls-7" transform="translate(93.79 256.63)">WC</text><rect class="cls-2" x="69.71" y="220.85" width="280.02" height="41.03"/><line class="cls-3" x1="193.92" y1="226.91" x2="180.53" y2="226.44"/><line class="cls-3" x1="180.53" y1="223.64" x2="193.92" y2="223.17"/><line class="cls-4" x1="193.92" y1="226.91" x2="193.92" y2="223.17"/><line class="cls-3" x1="192.7" y1="226.84" x2="192.7" y2="223.23"/><line class="cls-3" x1="191.48" y1="226.79" x2="191.48" y2="223.29"/><line class="cls-3" x1="190.27" y1="226.74" x2="190.27" y2="223.34"/><line class="cls-3" x1="189.05" y1="226.7" x2="189.05" y2="223.38"/><line class="cls-3" x1="187.83" y1="226.66" x2="187.83" y2="223.41"/><line class="cls-3" x1="186.62" y1="226.63" x2="186.62" y2="223.45"/><line class="cls-3" x1="185.4" y1="226.6" x2="185.4" y2="223.48"/><line class="cls-4" x1="180.53" y1="226.44" x2="180.53" y2="223.64"/><line class="cls-3" x1="181.75" y1="226.48" x2="181.75" y2="223.6"/><line class="cls-3" x1="182.97" y1="226.6" x2="182.97" y2="223.48"/><line class="cls-3" x1="184.18" y1="226.6" x2="184.18" y2="223.48"/><line class="cls-3" x1="225.36" y1="226.91" x2="238.75" y2="226.44"/><line class="cls-3" x1="238.75" y1="223.64" x2="225.36" y2="223.17"/><line class="cls-4" x1="225.36" y1="226.91" x2="225.36" y2="223.17"/><line class="cls-3" x1="226.58" y1="226.84" x2="226.58" y2="223.23"/><line class="cls-3" x1="227.8" y1="226.79" x2="227.8" y2="223.29"/><line class="cls-3" x1="229.01" y1="226.74" x2="229.01" y2="223.34"/><line class="cls-3" x1="230.23" y1="226.7" x2="230.23" y2="223.38"/><line class="cls-3" x1="231.45" y1="226.66" x2="231.45" y2="223.41"/><line class="cls-3" x1="232.67" y1="226.63" x2="232.67" y2="223.45"/><line class="cls-3" x1="233.88" y1="226.6" x2="233.88" y2="223.48"/><line class="cls-4" x1="238.75" y1="226.44" x2="238.75" y2="223.64"/><line class="cls-3" x1="237.53" y1="226.48" x2="237.53" y2="223.6"/><line class="cls-3" x1="236.32" y1="226.6" x2="236.32" y2="223.48"/><line class="cls-3" x1="235.1" y1="226.6" x2="235.1" y2="223.48"/><line class="cls-2" x1="179.5" y1="228.78" x2="239.71" y2="228.78"/><path class="cls-6" d="M158,196.43h1.33v10h4.53v-2.78h1.18v4h-7Z"/><path class="cls-6" d="M167.08,203.63a4.47,4.47,0,0,1,1-3.07,3.66,3.66,0,0,1,2.88-1.13,4.35,4.35,0,0,1,1.74.33,3.53,3.53,0,0,1,1.21.89,3.7,3.7,0,0,1,.71,1.33,5.82,5.82,0,0,1,.23,1.65,5.48,5.48,0,0,1-.25,1.73,3.72,3.72,0,0,1-.76,1.32,3.18,3.18,0,0,1-1.22.84,4.35,4.35,0,0,1-1.66.3,4.24,4.24,0,0,1-1.73-.33,3.32,3.32,0,0,1-1.21-.89,3.51,3.51,0,0,1-.71-1.32A5.58,5.58,0,0,1,167.08,203.63Zm1.33,0a4.84,4.84,0,0,0,.14,1.12,3.16,3.16,0,0,0,.44,1,2.26,2.26,0,0,0,.79.71,2.29,2.29,0,0,0,1.18.28,2.36,2.36,0,0,0,1.93-.79,3.63,3.63,0,0,0,.64-2.33,4.72,4.72,0,0,0-.13-1.13,2.93,2.93,0,0,0-.45-1,2.31,2.31,0,0,0-.8-.72,2.41,2.41,0,0,0-1.19-.27,2.33,2.33,0,0,0-1.91.78A3.67,3.67,0,0,0,168.41,203.63Z"/><path class="cls-6" d="M181.2,201.39l1.6,4.45h.11l1.13-6.21h1.17l-1.57,8h-1.42l-1.54-4.42h0l-1.6,4.42h-1.43l-1.68-8h1.23l1.3,6.24h.1l1.55-4.48Z"/><path class="cls-6" d="M193.84,206.62a4.54,4.54,0,0,1-.68.48,4.77,4.77,0,0,1-.86.38,6,6,0,0,1-1,.25,5.66,5.66,0,0,1-1,.09,4.49,4.49,0,0,1-1.7-.3,3.16,3.16,0,0,1-1.23-.85,3.56,3.56,0,0,1-.75-1.32,5.4,5.4,0,0,1-.26-1.72,5.22,5.22,0,0,1,.28-1.79,3.59,3.59,0,0,1,.81-1.32,3.44,3.44,0,0,1,1.28-.8,4.7,4.7,0,0,1,1.68-.29,5,5,0,0,1,1.33.18,2.68,2.68,0,0,1,1.16.67,3.16,3.16,0,0,1,.77,1.34,6.15,6.15,0,0,1,.19,2.22h-6.17a2.81,2.81,0,0,0,.77,2.15,3,3,0,0,0,2.07.71,3.48,3.48,0,0,0,.85-.11,6.91,6.91,0,0,0,.81-.24,6.2,6.2,0,0,0,.68-.32,4.58,4.58,0,0,0,.45-.32Zm-3.37-6.13a4.57,4.57,0,0,0-1,.11,2.34,2.34,0,0,0-.83.38,2.1,2.1,0,0,0-.59.69,2.77,2.77,0,0,0-.29,1.05h5a2.48,2.48,0,0,0-.68-1.64A2.15,2.15,0,0,0,190.47,200.49Z"/><path class="cls-6" d="M196,207.63v-1.08h2.16V200.7H196v-1.07h3l.26,1h.08a5.48,5.48,0,0,1,1.21-.85,3.34,3.34,0,0,1,1.6-.35,1.7,1.7,0,0,1,.87.2,1.49,1.49,0,0,1,.52.61,3.2,3.2,0,0,1,.24,1,10,10,0,0,1,.07,1.29h-1.12a4.21,4.21,0,0,0-.2-1.49.74.74,0,0,0-.73-.47,2.58,2.58,0,0,0-.9.14,3,3,0,0,0-.69.35,3.81,3.81,0,0,0-.51.42,1.7,1.7,0,0,0-.3.35v4.7h3.07v1.08Z"/><path class="cls-6" d="M215.61,196.43h1.33v10h4.53v-2.78h1.18v4h-7Z"/><path class="cls-6" d="M224.68,203.63a4.47,4.47,0,0,1,1-3.07,3.66,3.66,0,0,1,2.88-1.13,4.39,4.39,0,0,1,1.74.33,3.49,3.49,0,0,1,1.2.89,3.71,3.71,0,0,1,.72,1.33,5.82,5.82,0,0,1,.23,1.65,5.47,5.47,0,0,1-.26,1.73,3.56,3.56,0,0,1-.75,1.32,3.18,3.18,0,0,1-1.22.84,4.35,4.35,0,0,1-1.66.3,4.2,4.2,0,0,1-1.73-.33,3.32,3.32,0,0,1-1.21-.89,3.67,3.67,0,0,1-.72-1.32A5.93,5.93,0,0,1,224.68,203.63Zm1.33,0a4.84,4.84,0,0,0,.14,1.12,3.15,3.15,0,0,0,.43,1,2.45,2.45,0,0,0,.79.71,2.33,2.33,0,0,0,1.19.28,2.35,2.35,0,0,0,1.92-.79,3.58,3.58,0,0,0,.65-2.33,4.27,4.27,0,0,0-.14-1.13,2.91,2.91,0,0,0-.44-1,2.31,2.31,0,0,0-.8-.72,2.41,2.41,0,0,0-1.19-.27,2.31,2.31,0,0,0-1.91.78A3.61,3.61,0,0,0,226,203.63Z"/><path class="cls-6" d="M233.4,196.43H236v4.11H236a2.92,2.92,0,0,1,1.07-.82,3.58,3.58,0,0,1,1.43-.29c2.34,0,3.52,1.36,3.52,4.07a4.17,4.17,0,0,1-1.14,3.16,4.47,4.47,0,0,1-3.23,1.1,7.54,7.54,0,0,1-1.79-.2,3.67,3.67,0,0,1-1.17-.44V197.5H233.4Zm5,4.08a2.2,2.2,0,0,0-1.55.54,3.13,3.13,0,0,0-.87,1.54v3.68a3.78,3.78,0,0,0,.88.3,4.68,4.68,0,0,0,1.07.11,3.49,3.49,0,0,0,1.16-.18,2.15,2.15,0,0,0,.89-.58,2.5,2.5,0,0,0,.57-1,4.68,4.68,0,0,0,.2-1.44,4.77,4.77,0,0,0-.13-1.15,2.63,2.63,0,0,0-.41-1,1.93,1.93,0,0,0-.72-.64A2.31,2.31,0,0,0,238.38,200.51Z"/><path class="cls-6" d="M243,196.43h2.56v4.11h.08a2.92,2.92,0,0,1,1.07-.82,3.58,3.58,0,0,1,1.43-.29c2.34,0,3.52,1.36,3.52,4.07a4.17,4.17,0,0,1-1.14,3.16,4.47,4.47,0,0,1-3.23,1.1,7.54,7.54,0,0,1-1.79-.2,3.67,3.67,0,0,1-1.17-.44V197.5H243Zm5,4.08a2.2,2.2,0,0,0-1.55.54,3.13,3.13,0,0,0-.87,1.54v3.68a3.78,3.78,0,0,0,.88.3,4.68,4.68,0,0,0,1.07.11,3.49,3.49,0,0,0,1.16-.18,2.15,2.15,0,0,0,.89-.58,2.5,2.5,0,0,0,.57-1,4.68,4.68,0,0,0,.2-1.44,4.77,4.77,0,0,0-.13-1.15,2.63,2.63,0,0,0-.41-1,1.93,1.93,0,0,0-.72-.64A2.31,2.31,0,0,0,248,200.51Z"/><path class="cls-6" d="M257.55,206.39h.6l2-6.76h1.29l-2.22,7.18c-.12.37-.24.8-.36,1.27a6,6,0,0,1-.52,1.34,3.07,3.07,0,0,1-.91,1.05,2.46,2.46,0,0,1-1.51.44,2.37,2.37,0,0,1-.44,0l-.45-.12a4.08,4.08,0,0,1-.42-.17,1.21,1.21,0,0,1-.29-.19l.45-1.15a1.85,1.85,0,0,0,.63.29l.4.1a1.33,1.33,0,0,0,.32,0c.8,0,1.34-.68,1.63-2h-1.07l-3.36-8h1.44Z"/><line class="cls-2" x1="170.12" y1="122.96" x2="153.51" y2="122.96"/><polygon class="cls-6" points="168.47 120.91 168.12 121.28 169.93 122.96 168.12 124.64 168.47 125 170.66 122.96 168.47 120.91"/><line class="cls-2" x1="178.27" y1="225.04" x2="161.67" y2="225.04"/><polygon class="cls-6" points="176.62 223 176.28 223.36 178.08 225.04 176.28 226.72 176.62 227.09 178.82 225.04 176.62 223"/><line class="cls-2" x1="250.34" y1="122.97" x2="266.94" y2="122.97"/><polygon class="cls-6" points="251.99 125.01 252.33 124.64 250.53 122.97 252.33 121.29 251.99 120.92 249.79 122.97 251.99 125.01"/><line class="cls-2" x1="241.27" y1="225.04" x2="257.88" y2="225.04"/><polygon class="cls-6" points="242.93 227.09 243.27 226.72 241.46 225.04 243.27 223.36 242.93 223 240.73 225.04 242.93 227.09"/></svg>